<svg xmlns="http://www.w3.org/2000/svg" enable-background="new 0 0 24 24" viewBox="0 0 24 24"><path d="M18 15V9c0-.0938-.0162-.1846-.0413-.2726-.0079-.0278-.0204-.0529-.0306-.0798-.0223-.0587-.048-.1148-.0808-.1682C17.8301 8.4516 17.8115 8.426 17.7919 8.4c-.0359-.0474-.0759-.0904-.1201-.131-.0244-.0224-.0474-.0447-.074-.0647-.0132-.0099-.0233-.0231-.0372-.0324-.044-.0299-.0924-.0494-.1398-.0717-.0175-.0082-.0311-.0217-.0492-.0289l-5-2c-.2393-.0947-.5039-.0947-.7432 0l-5 2C6.6082 8.0794 6.5928 8.0944 6.5732 8.1038 6.5281 8.1252 6.4816 8.1435 6.4395 8.1719 6.4256 8.1812 6.4155 8.1943 6.4023 8.2043c-.0266.02-.0497.0423-.074.0647C6.284 8.3096 6.244 8.3527 6.2081 8.4 6.1885 8.426 6.1699 8.4516 6.1528 8.4794 6.12 8.5328 6.0942 8.5889 6.072 8.6476 6.0618 8.6745 6.0493 8.6995 6.0413 8.7274 6.0162 8.8154 6 8.9062 6 9v6c0 .4087.249.7764.6284.9287l5 2c.0117.0046.0244.0027.0362.007C11.7731 17.9745 11.8852 18 12 18s.2269-.0255.3354-.0643c.0118-.0042.0245-.0023.0362-.007l5-2C17.751 15.7764 18 15.4087 18 15zM11 15.5229l-3-1.2002v-3.8454l3 1.2V15.5229zM12 9.9227L9.6929 8.9998 12 8.0771l2.3071.9227L12 9.9227zM16 14.3228l-3 1.2002v-3.8456l3-1.2V14.3228zM19 2h-3c-.5522 0-1 .4478-1 1s.4478 1 1 1h3c.5513 0 1 .4487 1 1v3c0 .5522.4478 1 1 1s1-.4478 1-1V5C22 3.3457 20.6543 2 19 2zM21 15c-.5522 0-1 .4478-1 1v3c0 .5513-.4487 1-1 1h-3c-.5522 0-1 .4478-1 1s.4478 1 1 1h3c1.6543 0 3-1.3457 3-3v-3C22 15.4478 21.5522 15 21 15zM3 9c.5522 0 1-.4478 1-1V5c0-.5513.4487-1 1-1h3c.5522 0 1-.4478 1-1S8.5522 2 8 2H5C3.3457 2 2 3.3457 2 5v3C2 8.5522 2.4478 9 3 9zM5 22h3c.5522 0 1-.4478 1-1s-.4478-1-1-1H5c-.5513 0-1-.4487-1-1v-3c0-.5522-.4478-1-1-1s-1 .4478-1 1v3C2 20.6543 3.3457 22 5 22z"/></svg>