<svg xmlns="http://www.w3.org/2000/svg" enable-background="new 0 0 64 64" viewBox="0 0 64 64"><path fill="#4e5292" d="M48.41,32l-13.98,9.06c-1.48,0.96-3.39,0.96-4.86,0L15.59,32l13.98-9.06c1.48-0.96,3.39-0.96,4.86,0L48.41,32z
		 M59.87,38.89L34.43,55.37c-1.48,0.96-3.39,0.96-4.86,0L4.12,38.89V25.75l10.27,6.65c0.01,0.01,0.03,0.02,0.04,0.03l14.61,9.46
		c0.9,0.58,1.93,0.88,2.96,0.88c1.03,0,2.07-0.3,2.96-0.88l14.58-9.44c0.01-0.01,0.01-0.01,0.02-0.02l10.31-6.68V38.89z
		 M60.81,24.63c-0.01-0.01-0.01-0.01-0.01-0.02c-0.01-0.01-0.01-0.02-0.01-0.03c-0.05-0.07-0.11-0.12-0.17-0.16L34.97,7.8
		c-1.81-1.16-4.14-1.16-5.95,0L3.37,24.42c-0.06,0.04-0.11,0.09-0.16,0.16c0,0.01,0,0.02-0.01,0.02c-0.01,0.02-0.01,0.03-0.01,0.05
		c-0.03,0.05-0.04,0.11-0.05,0.17c0,0.01-0.01,0.02-0.01,0.03v14.32c0,0.02,0.01,0.04,0.01,0.05c0.01,0.04,0.01,0.07,0.02,0.1
		c0.01,0.03,0.03,0.06,0.04,0.09c0.02,0.03,0.03,0.05,0.05,0.07c0.02,0.03,0.05,0.06,0.08,0.08c0.01,0.01,0.02,0.02,0.03,0.03
		L29.04,56.2c0.9,0.58,1.93,0.88,2.96,0.88c1.03,0,2.07-0.3,2.96-0.88l25.68-16.63l0.1-0.1c0.03-0.03,0.05-0.06,0.06-0.09
		c0.01-0.02,0.02-0.05,0.03-0.07c0.02-0.04,0.02-0.08,0.03-0.12V24.84c0-0.01,0-0.01,0-0.02C60.85,24.75,60.84,24.68,60.81,24.63z
		 M49.32,31.41l-14.35-9.29c-1.81-1.16-4.14-1.16-5.95,0l-14.35,9.29L4.54,24.84L29.57,8.63c1.48-0.95,3.39-0.95,4.86,0l25.03,16.22
		L49.32,31.41z"/><path fill="#d8dfe6" d="M59.46,24.84l-10.14,6.57l-14.35-9.29c-1.81-1.16-4.14-1.16-5.95,0l-14.35,9.29L4.54,24.84L29.57,8.63
		c1.48-0.95,3.39-0.95,4.86,0L59.46,24.84z"/><path fill="#b5c3cc" d="M34.43,22.94c-1.48-0.96-3.39-0.96-4.86,0L15.59,32l13.98,9.06c1.48,0.96,3.39,0.96,4.86,0L48.41,32
		L34.43,22.94z M32,37.01c-2.77,0-5.01-2.24-5.01-5.01s2.24-5.01,5.01-5.01c2.77,0,5.01,2.24,5.01,5.01S34.77,37.01,32,37.01z"/><path fill="#ccd5dd" d="M50.94,30.36l-1.62,1.05l-14.35-9.29c-1.81-1.16-4.14-1.16-5.95,0l-14.35,9.29l-1.62-1.05L28.58,20.3
		c2.08-1.34,4.76-1.34,6.83,0L50.94,30.36z"/><path fill="#ccd5dd" d="M59.87,25.75v13.14L34.43,55.37c-1.48,0.96-3.39,0.96-4.86,0L4.12,38.89V25.75l10.27,6.65
		c0.01,0.01,0.03,0.02,0.04,0.03l14.61,9.46c0.9,0.58,1.93,0.88,2.96,0.88c1.03,0,2.07-0.3,2.96-0.88l14.58-9.44
		c0.01-0.01,0.01-0.01,0.02-0.02L59.87,25.75z"/><path fill="#b5c3cc" d="M59.87,36.06v2.84L34.43,55.37c-1.48,0.96-3.39,0.96-4.86,0L4.12,38.89v-2.84l25.45,16.48
		c1.48,0.96,3.39,0.96,4.86,0L59.87,36.06z"/><path fill="#4e5292" d="M.49 10.18c.27 0 .49-.22.49-.49V.98h8.71c.27 0 .49-.22.49-.49C10.18.22 9.96 0 9.69 0h-9.2C.22 0 0 .22 0 .49v9.2C0 9.96.22 10.18.49 10.18zM63.51 53.82c-.27 0-.49.22-.49.49v8.71h-8.71c-.27 0-.49.22-.49.49 0 .27.22.49.49.49h9.2c.27 0 .49-.22.49-.49v-9.2C64 54.04 63.78 53.82 63.51 53.82zM63.51 0h-9.2c-.27 0-.49.22-.49.49 0 .27.22.49.49.49h8.71v8.71c0 .27.22.49.49.49.27 0 .49-.22.49-.49v-9.2C64 .22 63.78 0 63.51 0zM9.69 63.02H.98v-8.71c0-.27-.22-.49-.49-.49S0 54.04 0 54.31v9.2C0 63.78.22 64 .49 64h9.2c.27 0 .49-.22.49-.49C10.18 63.24 9.96 63.02 9.69 63.02z"/><path fill="#ec9aad" d="M4.6 5.09v7.86c0 .27.22.49.49.49s.49-.22.49-.49V5.58h7.36c.27 0 .49-.22.49-.49 0-.27-.22-.49-.49-.49H5.09C4.82 4.6 4.6 4.82 4.6 5.09zM59.4 58.91v-7.86c0-.27-.22-.49-.49-.49s-.49.22-.49.49v7.36h-7.36c-.27 0-.49.22-.49.49 0 .27.22.49.49.49h7.86C59.18 59.4 59.4 59.18 59.4 58.91zM51.05 5.58h7.36v7.36c0 .27.22.49.49.49s.49-.22.49-.49V5.09c0-.27-.22-.49-.49-.49h-7.86c-.27 0-.49.22-.49.49C50.56 5.36 50.78 5.58 51.05 5.58zM12.95 58.42H5.58v-7.36c0-.27-.22-.49-.49-.49S4.6 50.78 4.6 51.05v7.86c0 .27.22.49.49.49h7.86c.27 0 .49-.22.49-.49C13.44 58.64 13.22 58.42 12.95 58.42z"/><path fill="#4e5292" d="M32,26.99c-2.77,0-5.01,2.24-5.01,5.01s2.24,5.01,5.01,5.01c2.77,0,5.01-2.24,5.01-5.01S34.77,26.99,32,26.99z
		 M32,36.03c-2.23,0-4.03-1.8-4.03-4.03c0-2.22,1.8-4.03,4.03-4.03c2.23,0,4.03,1.81,4.03,4.03C36.03,34.23,34.23,36.03,32,36.03z"/><path fill="#b9e0ce" d="M36.03,32c0,2.23-1.8,4.03-4.03,4.03c-2.23,0-4.03-1.8-4.03-4.03c0-2.22,1.8-4.03,4.03-4.03
		C34.23,27.97,36.03,29.78,36.03,32z"/><path fill="#89c3a8" d="M35.25,34.36c-0.72,1-1.91,1.66-3.25,1.66c-2.23,0-4.03-1.8-4.03-4.03c0-1.34,0.66-2.52,1.66-3.25
		c-0.49,0.66-0.78,1.48-0.78,2.36c0,2.23,1.8,4.03,4.03,4.03C33.77,35.14,34.59,34.86,35.25,34.36z"/><path fill="#98d3ba" d="M35.85,33.15c-0.12,0.44-0.33,0.85-0.6,1.21c-0.66,0.49-1.48,0.78-2.36,0.78c-2.23,0-4.03-1.8-4.03-4.03
		c0-0.89,0.29-1.7,0.78-2.36c0.36-0.27,0.77-0.48,1.21-0.6c-0.11,0.36-0.17,0.75-0.17,1.14c0,2.23,1.8,4.03,4.03,4.03
		C35.1,33.32,35.49,33.26,35.85,33.15z"/></svg>