<svg xmlns="http://www.w3.org/2000/svg" viewBox="0 0 64 64"><g data-name="Glyph"><path d="M25 56a1 1 0 0 0 1 1h12a1 1 0 0 0 0-2H26a1 1 0 0 0-1 1Z"/><circle cx="51" cy="26" r="1"/><path d="m31.5 20.934-8.85 5.11a1 1 0 0 0-.5.866v10.22a1 1 0 0 0 .5.866l8.85 5.11a1 1 0 0 0 1 0L41.35 38a1 1 0 0 0 .5-.866V26.91a1 1 0 0 0-.5-.866l-8.85-5.11a1 1 0 0 0-1 0Zm8.35 15.619L33 40.508V32.6l6.85-3.956Zm-1-9.643L32 30.865l-6.85-3.955L32 22.955Z"/><path d="M45 2H19a3 3 0 0 0-3 3v18.22L2.494 31.137a1.008 1.008 0 0 0 0 1.726L16 40.78V59a3 3 0 0 0 3 3h26a3 3 0 0 0 3-3V40.78l13.506-7.917a1.007 1.007 0 0 0 .049-1.7l-6-4a1 1 0 0 0-1.11 1.664l4.67 3.113L48 38.462V5a3 3 0 0 0-3-3ZM16 38.462 4.978 32 16 25.539ZM46 59a1 1 0 0 1-1 1H19a1 1 0 0 1-1-1V41.952l13.494 7.91a1 1 0 0 0 1.012 0L46 41.952Zm0-19.366-14 8.207-14-8.207V24.366l14-8.207 14 8.207Zm0-17.587-13.494-7.91a1.006 1.006 0 0 0-1.012 0L18 22.047V5a1 1 0 0 1 1-1h5v2a2 2 0 0 0 2 2h12a2 2 0 0 0 2-2V4h5a1 1 0 0 1 1 1Z"/><circle cx="43" cy="17" r="1"/><path d="M43 6a1 1 0 0 0-1 1v6a1 1 0 0 0 2 0V7a1 1 0 0 0-1-1Z"/></g></svg>